<?xml version="1.0" encoding="utf-8"?>
<?xml-stylesheet type="text/xsl" href="rss1.xsl"?>
<rss version="2.0" xmlns:atom="http://www.w3.org/2005/Atom" xmlns:content="http://purl.org/rss/1.0/modules/content/" xmlns:dc="http://purl.org/dc/elements/1.1/" xmlns:media="http://search.yahoo.com/mrss/">
<channel>
 <title>Getty</title>
 <link>http://www.gettyimg.com/</link>
 <atom:link href="http://www.gettyimg.com/" rel="self" type="application/rss+xml" />

 
                <item>
                <title><![CDATA[【HD Live Performances】FEED - Keane - Live @ Isle Of Wight 2024 FEED HDTV H264 1080i MP2&amp;Dolby E-J Silver]]></title>
                <link><![CDATA[https://sharemania.us/threads/keane-live-isle-of-wight-2024-feed-hdtv-h264-1080i-mp2-dolby-e-j-silver.247917/]]></link>
                <description><![CDATA[<article>
<blockquote class="messageText SelectQuoteContainer ugc baseHtml">
<div style="text-align: center"><img src="https://i123.fastpic.org/big/2024/0622/e0/bad436517f8c24d4734ef8f62ee125e0.png?r=1" class="bbCodeImage LbImage" alt="[​IMG]" data-url="https://i123.fastpic.org/big/2024/0622/e0/bad436517f8c24d4734ef8f62ee125e0.png?r=1" style=""><br>
<br>
<a href="https://fastpic.org/view/123/2024/0625/_4a4f29c9693d8ffa8747127922ca3b9a.png.html" target="_blank" class="externalLink" rel="nofollow"><img src="https://i123.fastpic.org/thumb/2024/0625/9a/_4a4f29c9693d8ffa8747127922ca3b9a.jpeg" class="bbCodeImage LbImage" alt="[​IMG]" data-url="https://i123.fastpic.org/thumb/2024/0625/9a/_4a4f29c9693d8ffa8747127922ca3b9a.jpeg"></a> <a href="https://fastpic.org/view/123/2024/0625/_e92c4a4273fe16eb844e414167b8eb06.png.html" target="_blank" class="externalLink" rel="nofollow"><img src="https://i123.fastpic.org/thumb/2024/0625/06/_e92c4a4273fe16eb844e414167b8eb06.jpeg" class="bbCodeImage LbImage" alt="[​IMG]" data-url="https://i123.fastpic.org/thumb/2024/0625/06/_e92c4a4273fe16eb844e414167b8eb06.jpeg"></a> <a href="https://fastpic.org/view/123/2024/0625/_73048c178b78699f0605c79fbc75ff09.png.html" target="_blank" class="externalLink" rel="nofollow"><img src="https://i123.fastpic.org/thumb/2024/0625/09/_73048c178b78699f0605c79fbc75ff09.jpeg" class="bbCodeImage LbImage" alt="[​IMG]" data-url="https://i123.fastpic.org/thumb/2024/0625/09/_73048c178b78699f0605c79fbc75ff09.jpeg"></a> <a href="https://fastpic.org/view/123/2024/0625/_b9c4276438f3abfbce8dc6fec22d6ae0.png.html" target="_blank" class="externalLink" rel="nofollow"><img src="https://i123.fastpic.org/thumb/2024/0625/e0/_b9c4276438f3abfbce8dc6fec22d6ae0.jpeg" class="bbCodeImage LbImage" alt="[​IMG]" data-url="https://i123.fastpic.org/thumb/2024/0625/e0/_b9c4276438f3abfbce8dc6fec22d6ae0.jpeg"></a> <a href="https://fastpic.org/view/123/2024/0625/_a931c9dff024b3531b10f4f57967953e.png.html" target="_blank" class="externalLink" rel="nofollow"><img src="https://i123.fastpic.org/thumb/2024/0625/3e/_a931c9dff024b3531b10f4f57967953e.jpeg" class="bbCodeImage LbImage" alt="[​IMG]" data-url="https://i123.fastpic.org/thumb/2024/0625/3e/_a931c9dff024b3531b10f4f57967953e.jpeg"></a> <a href="https://fastpic.org/view/123/2024/0625/_c6e0ce475346f2dca6bf2944c55718a8.png.html" target="_blank" class="externalLink" rel="nofollow"><img src="https://i123.fastpic.org/thumb/2024/0625/a8/_c6e0ce475346f2dca6bf2944c55718a8.jpeg" class="bbCodeImage LbImage" alt="[​IMG]" data-url="https://i123.fastpic.org/thumb/2024/0625/a8/_c6e0ce475346f2dca6bf2944c55718a8.jpeg"></a><br>
<br>
​</div><br>
<div class="bbCodeBlock bbCodeCode">
<div class="type">Code:</div>
<pre>General
ID                                       : 0 (0x0)
Complete name                            : C:\Recordings\Keane - Live @ Isle Of Wight 2024 FEED HDTV H264 1080i MP2&amp;Dolby E-J Silver.ts
Format                                   : MPEG-TS
File size                                : 13.4 GiB
Duration                                 : 55 min 21 s
Overall bit rate mode                    : Variable
Overall bit rate                         : 34.5 Mb/s
Frame rate                               : 25.000 FPS

Video
ID                                       : 512 (0x200)
Menu ID                                  : 1 (0x1)
Format                                   : AVC
Format/Info                              : Advanced Video Codec
Format profile                           : High 4:2:2@L4
Format settings                          : CABAC / 3 Ref Frames
Format settings, CABAC                   : Yes
Format settings, Reference frames        : 3 frames
Format settings, Slice count             : 6 slices per frame
Codec ID                                 : 27
Duration                                 : 55 min 21 s
Bit rate mode                            : Constant
Bit rate                                 : 30.0 Mb/s
Nominal bit rate                         : 32.1 Mb/s
Width                                    : 1 920 pixels
Height                                   : 1 080 pixels
Display aspect ratio                     : 16:9
Frame rate                               : 25.000 FPS
Color space                              : YUV
Chroma subsampling                       : 4:2:2
Bit depth                                : 10 bits
Scan type                                : MBAFF
Scan type, store method                  : Interleaved fields
Scan order                               : Top Field First
Bits/(Pixel*Frame)                       : 0.579
Stream size                              : 11.6 GiB (87%)
Color range                              : Limited
Color primaries                          : BT.709
Transfer characteristics                 : BT.709
Matrix coefficients                      : BT.709

Audio #1
ID                                       : 4112 (0x1010)
Menu ID                                  : 1 (0x1)
Format                                   : MPEG Audio
Format version                           : Version 1
Format profile                           : Layer 2
Codec ID                                 : 3
Duration                                 : 55 min 21 s
Bit rate mode                            : Constant
Bit rate                                 : 384 kb/s
Channel(s)                               : 2 channels
Sampling rate                            : 48.0 kHz
Frame rate                               : 41.667 FPS (1152 SPF)
Compression mode                         : Lossy
Stream size                              : 152 MiB (1%)
Language                                 : English
Language, more info                      : Clean effects

Audio #2
ID                                       : 4128 (0x1020)
Menu ID                                  : 1 (0x1)
Format                                   : MPEG Audio
Format version                           : Version 1
Format profile                           : Layer 2
Codec ID                                 : 3
Duration                                 : 55 min 21 s
Bit rate mode                            : Constant
Bit rate                                 : 112 kb/s
Channel(s)                               : 2 channels
Sampling rate                            : 48.0 kHz
Frame rate                               : 41.667 FPS (1152 SPF)
Compression mode                         : Lossy
Stream size                              : 44.3 MiB (0%)
Language                                 : English
Language, more info                      : Clean effects

Audio #3
ID                                       : 4144 (0x1030)-1
Menu ID                                  : 1 (0x1)
Format                                   : Dolby E
Format settings                          : Little
Muxing mode                              : SMPTE ST 302 / SMPTE ST 337
Codec ID                                 : 6
Duration                                 : 55 min 21 s
Bit rate mode                            : Constant
Bit rate                                 : 1 291 kb/s
Channel(s)                               : 6 channels
Channel layout                           : L C Ls X R LFE Rs X
Sampling rate                            : 48.0 kHz
Frame rate                               : 25.000 FPS (1920 SPF)
Bit depth                                : 20 bits
Stream size                              : 511 MiB (4%)
Title                                    : CTV OB9 SPARE                   
Language                                 : English
Language, more info                      : Clean effects

Audio #4
ID                                       : 4144 (0x1030)-2
Menu ID                                  : 1 (0x1)
Format                                   : Dolby E
Format settings                          : Little
Muxing mode                              : SMPTE ST 302 / SMPTE ST 337
Codec ID                                 : 6
Duration                                 : 55 min 21 s
Bit rate mode                            : Constant
Bit rate                                 : 505 kb/s
Channel(s)                               : 2 channels
Channel layout                           : X X X L X X X R
Sampling rate                            : 48.0 kHz
Frame rate                               : 25.000 FPS (1920 SPF)
Bit depth                                : 20 bits
Stream size                              : 200 MiB (1%)
Title                                    : BTSPOT 
Language                                 : English
Language, more info                      : Clean effects


</pre>
</div><div style="text-align: center"><br>
<div class="bbCodeBlock bbCodeVfcHH HiddenContent">
<div class="attribution type">Hidden Content:</div>
<blockquote>You must reply before you can see the hidden data contained here.</blockquote>
</div></div>
<div class="messageTextEndMarker">&nbsp;</div>
</blockquote>
</article>]]></description>
                <author><![CDATA[ilya2129]]></author>
                </item>

                </channel></rss>